# Created by Metasequoia

v 0.000000 0.000000 -0.200000
v 0.200000 0.000000 -0.200000
v 0.000000 0.000000 0.200000
v -0.200000 0.000000 0.200000
v -0.200000 0.000000 0.000000
v 0.200000 0.000000 0.000000
v 0.200000 0.000000 0.150000
v 0.200000 0.000000 0.100000
v 0.200000 0.000000 0.050000
v 0.200000 0.000000 -0.050000
v 0.200000 0.000000 -0.100000
v 0.200000 0.000000 -0.150000
v 0.150000 0.000000 0.200000
v 0.150000 0.000000 0.150000
v 0.150000 0.000000 0.100000
v 0.150000 0.000000 0.050000
v 0.150000 0.000000 0.000000
v 0.150000 0.000000 -0.050000
v 0.150000 0.000000 -0.100000
v 0.150000 0.000000 -0.150000
v 0.150000 0.000000 -0.200000
v 0.100000 0.000000 0.200000
v 0.100000 0.000000 0.150000
v 0.100000 0.000000 0.100000
v 0.100000 0.000000 0.050000
v 0.100000 0.000000 0.000000
v 0.100000 0.000000 -0.050000
v 0.100000 0.000000 -0.100000
v 0.100000 0.000000 -0.150000
v 0.100000 0.000000 -0.200000
v 0.050000 0.000000 0.200000
v 0.050000 0.000000 0.150000
v 0.050000 0.000000 0.100000
v 0.050000 0.000000 0.050000
v 0.050000 0.000000 0.000000
v 0.050000 0.000000 -0.050000
v 0.050000 0.000000 -0.100000
v 0.050000 0.000000 -0.150000
v 0.050000 0.000000 -0.200000
v 0.000000 0.000000 0.150000
v 0.000000 0.000000 0.100000
v 0.000000 0.000000 0.050000
v 0.000000 0.000000 0.000000
v 0.000000 0.000000 -0.050000
v 0.000000 0.000000 -0.100000
v 0.000000 0.000000 -0.150000
v -0.050000 0.000000 0.200000
v -0.050000 0.000000 0.150000
v -0.050000 0.000000 0.100000
v -0.050000 0.000000 0.050000
v -0.050000 0.000000 0.000000
v -0.050000 0.000000 -0.050000
v -0.050000 0.000000 -0.100000
v -0.050000 0.000000 -0.150000
v -0.050000 0.000000 -0.200000
v -0.100000 0.000000 0.200000
v -0.100000 0.000000 0.150000
v -0.100000 0.000000 0.100000
v -0.100000 0.000000 0.050000
v -0.100000 0.000000 0.000000
v -0.100000 0.000000 -0.050000
v -0.100000 0.000000 -0.100000
v -0.100000 0.000000 -0.150000
v -0.100000 0.000000 -0.200000
v -0.150000 0.000000 0.200000
v -0.150000 0.000000 0.150000
v -0.150000 0.000000 0.100000
v -0.150000 0.000000 0.050000
v -0.150000 0.000000 0.000000
v -0.150000 0.000000 -0.050000
v -0.150000 0.000000 -0.100000
v -0.150000 0.000000 -0.150000
v -0.150000 0.000000 -0.200000
v -0.200000 0.000000 0.150000
v -0.200000 0.000000 0.100000
v -0.200000 0.000000 0.050000
v -0.200000 0.000000 -0.050000
v -0.200000 0.000000 -0.100000
v -0.200000 0.000000 -0.150000
# 79 vertices

vt 0.87610 0.64956
vt 0.70088 0.64956
vt 0.70088 0.82478
vt 0.87610 0.82478
vt 0.35044 1.00000
vt 0.52566 1.00000
vt 0.52566 0.82478
vt 0.35044 0.82478
vt 0.52566 0.64956
vt 0.35044 0.64956
vt 0.70088 0.47434
vt 0.52566 0.47434
vt 0.70088 0.29912
vt 0.52566 0.29912
vt 0.94868 0.22654
vt 0.94868 0.10264
vt 0.82478 0.10264
vt 0.82478 0.22654
vt 0.94868 0.47434
vt 0.94868 0.35044
vt 0.82478 0.35044
vt 0.82478 0.47434
vt 0.17522 0.29912
vt 0.00000 0.29912
vt 0.00000 0.47434
vt 0.17522 0.47434
vt 0.70088 0.35044
vt 0.70088 0.47434
vt 0.82478 0.47434
vt 0.70088 0.22654
vt 0.52566 0.12390
vt 0.35044 0.12390
vt 0.35044 0.29912
vt 0.17522 0.82478
vt 0.17522 0.64956
vt 0.70088 1.00000
vt 0.70088 0.12390
vt 0.70088 0.00000
vt 0.57698 0.00000
vt 0.57698 0.12390
vt 0.35044 0.47434
vt 0.82478 0.82478
vt 0.70088 0.94868
vt 0.82478 0.94868
vt 0.94868 0.94868
vt 0.94868 0.82478
vt 0.70088 0.10264
vt 0.00000 0.64956
vt 0.00000 0.82478
vt 0.40176 0.12390
vt 0.52566 0.00000
vt 0.40176 0.00000
vt 0.17522 0.12390
vt 0.00000 0.12390
vt 0.87610 0.47434
vt 0.17522 1.00000
vt 0.00000 1.00000
# 57 texture vertices

vn 0.00000 1.00000 0.00000
# 1 normal vertices

f 72/1/1 79/2/1 78/3/1
f 72/1/1 78/3/1 71/4/1
f 70/5/1 77/6/1 5/7/1
f 70/5/1 5/7/1 69/8/1
f 68/8/1 76/7/1 75/9/1
f 68/8/1 75/9/1 67/10/1
f 66/11/1 74/12/1 4/9/1
f 66/11/1 4/9/1 65/2/1
f 64/12/1 73/11/1 72/13/1
f 64/12/1 72/13/1 63/14/1
f 62/7/1 71/3/1 70/2/1
f 62/7/1 70/2/1 61/9/1
f 60/15/1 69/16/1 68/17/1
f 60/15/1 68/17/1 59/18/1
f 58/19/1 67/20/1 66/21/1
f 58/19/1 66/21/1 57/22/1
f 54/23/1 63/24/1 62/25/1
f 54/23/1 62/25/1 53/26/1
f 52/21/1 61/27/1 60/28/1
f 52/21/1 60/28/1 51/29/1
f 50/21/1 59/18/1 58/30/1
f 50/21/1 58/30/1 49/27/1
f 48/31/1 57/32/1 56/33/1
f 48/31/1 56/33/1 47/14/1
f 1/34/1 55/8/1 54/10/1
f 1/34/1 54/10/1 46/35/1
f 45/6/1 53/36/1 52/3/1
f 45/6/1 52/3/1 44/7/1
f 43/37/1 51/38/1 50/39/1
f 43/37/1 50/39/1 42/40/1
f 41/20/1 49/15/1 48/18/1
f 41/20/1 48/18/1 40/21/1
f 38/33/1 46/23/1 45/26/1
f 38/33/1 45/26/1 37/41/1
f 36/42/1 44/3/1 43/43/1
f 36/42/1 43/43/1 35/44/1
f 34/45/1 42/46/1 41/42/1
f 34/45/1 41/42/1 33/44/1
f 32/37/1 40/31/1 3/14/1
f 32/37/1 3/14/1 31/13/1
f 30/17/1 39/47/1 38/30/1
f 30/17/1 38/30/1 29/18/1
f 28/35/1 37/48/1 36/49/1
f 28/35/1 36/49/1 27/34/1
f 26/26/1 35/25/1 34/48/1
f 26/26/1 34/48/1 25/35/1
f 24/12/1 33/41/1 32/10/1
f 24/12/1 32/10/1 23/9/1
f 20/50/1 29/31/1 28/51/1
f 20/50/1 28/51/1 19/52/1
f 18/23/1 27/53/1 26/54/1
f 18/23/1 26/54/1 17/24/1
f 16/1/1 25/55/1 24/28/1
f 16/1/1 24/28/1 15/2/1
f 14/10/1 23/41/1 22/26/1
f 14/10/1 22/26/1 13/35/1
f 2/8/1 21/34/1 20/56/1
f 2/8/1 20/56/1 12/5/1
f 11/34/1 19/49/1 18/57/1
f 11/34/1 18/57/1 10/56/1
f 6/14/1 17/33/1 16/41/1
f 6/14/1 16/41/1 9/12/1
f 8/32/1 15/53/1 14/23/1
f 8/32/1 14/23/1 7/33/1
# 64 elements

