# Created by Metasequoia

v 0.000000 -0.010000 0.000000
v -0.200000 0.000000 -0.200000
v 0.000000 0.000000 -0.200000
v 0.000000 0.000000 -0.210000
v -0.210000 0.000000 -0.210000
v 0.000000 -0.002000 -0.212000
v 0.000000 -0.010000 -0.212000
v -0.212000 -0.010000 -0.212000
v -0.212000 -0.002000 -0.212000
v 0.212000 -0.010000 -0.212000
v 0.212000 -0.002000 -0.212000
v 0.200000 0.000000 -0.200000
v 0.210000 0.000000 -0.210000
v 0.200000 0.000000 0.200000
v 0.000000 0.000000 0.200000
v 0.000000 0.000000 0.210000
v 0.210000 0.000000 0.210000
v 0.000000 -0.002000 0.212000
v 0.000000 -0.010000 0.212000
v 0.212000 -0.010000 0.212000
v 0.212000 -0.002000 0.212000
v -0.212000 -0.010000 0.212000
v -0.212000 -0.002000 0.212000
v -0.200000 0.000000 0.200000
v -0.210000 0.000000 0.210000
v -0.200000 0.000000 0.000000
v -0.210000 0.000000 0.000000
v -0.212000 -0.002000 0.000000
v -0.212000 -0.010000 0.000000
v 0.200000 0.000000 0.000000
v 0.210000 0.000000 0.000000
v 0.212000 -0.002000 0.000000
v 0.212000 -0.010000 0.000000
# 33 vertices

vt 0.12500 1.00000
vt 0.25000 1.00000
vt 0.00000 1.00000
vt 0.75000 1.00000
vt 0.37500 1.00000
vt 0.50000 1.00000
vt 0.62500 1.00000
vt 0.87500 1.00000
vt 1.00000 1.00000
vt 0.50000 0.00000
vt 0.37500 0.00000
vt 0.37500 0.20000
vt 0.50000 0.20000
vt 0.62500 0.20000
vt 0.62500 0.00000
vt 0.87500 0.00000
vt 1.00000 0.00000
vt 0.87500 0.20000
vt 1.00000 0.20000
vt 0.00000 0.20000
vt 0.12500 0.20000
vt 0.00000 0.00000
vt 0.12500 0.00000
vt 0.25000 0.00000
vt 0.25000 0.20000
vt 0.75000 0.00000
vt 0.75000 0.20000
# 27 texture vertices

vn 0.00000 -1.00000 0.00000
vn 0.00000 1.00000 0.00000
vn 0.00000 0.96754 -0.25272
vn -0.27060 0.92388 -0.27060
vn 0.00000 0.38268 -0.92388
vn 0.27060 0.92388 -0.27060
vn 0.00000 0.96754 0.25272
vn 0.17895 0.91645 0.35790
vn 0.00000 0.38268 0.92388
vn -0.17895 0.91645 0.35790
vn -0.25272 0.96754 0.00000
vn -0.92388 0.38268 0.00000
vn 0.25272 0.96754 0.00000
vn 0.92388 0.38268 0.00000
vn 0.00000 0.00000 -1.00000
vn 0.00000 0.00000 1.00000
vn -1.00000 0.00000 0.00000
vn 1.00000 0.00000 0.00000
# 18 normal vertices

f 22/1/1 29/2/1 19/3/1
f 29/2/1 1/4/1 19/3/1
f 8/5/1 7/6/1 29/2/1
f 29/2/1 7/6/1 1/4/1
f 7/6/1 10/7/1 33/4/1
f 7/6/1 33/4/1 1/4/1
f 33/4/1 20/8/1 19/9/1
f 1/4/1 33/4/1 19/9/1
f 4/10/3 5/11/4 2/11/2
f 4/10/3 2/11/2 3/10/2
f 9/12/5 5/11/4 6/13/5
f 5/11/4 4/10/3 6/13/5
f 9/12/5 6/13/5 8/5/15
f 8/5/15 6/13/5 7/6/15
f 6/13/5 11/14/5 10/7/15
f 6/13/5 10/7/15 7/6/15
f 4/10/3 13/15/6 6/13/5
f 13/15/6 11/14/5 6/13/5
f 13/15/6 4/10/3 12/15/2
f 12/15/2 4/10/3 3/10/2
f 17/16/8 14/16/2 16/17/7
f 14/16/2 15/17/2 16/17/7
f 21/18/9 17/16/8 18/19/9
f 17/16/8 16/17/7 18/19/9
f 21/18/9 18/19/9 20/8/16
f 20/8/16 18/19/9 19/9/16
f 18/20/9 23/21/9 22/1/16
f 18/20/9 22/1/16 19/3/16
f 16/22/7 25/23/10 18/20/9
f 25/23/10 23/21/9 18/20/9
f 24/23/2 25/23/10 16/22/7
f 15/22/2 24/23/2 16/22/7
f 24/23/2 27/24/11 25/23/10
f 26/24/2 27/24/11 24/23/2
f 25/23/10 28/25/12 23/21/12
f 25/23/10 27/24/11 28/25/12
f 23/21/12 28/25/12 22/1/17
f 28/25/12 29/2/17 22/1/17
f 28/25/12 9/12/12 8/5/17
f 28/25/12 8/5/17 29/2/17
f 27/24/11 5/11/4 28/25/12
f 5/11/4 9/12/12 28/25/12
f 2/11/2 5/11/4 27/24/11
f 2/11/2 27/24/11 26/24/2
f 13/15/6 12/15/2 31/26/13
f 31/26/13 12/15/2 30/26/2
f 11/14/14 13/15/6 32/27/14
f 13/15/6 31/26/13 32/27/14
f 11/14/14 32/27/14 10/7/18
f 10/7/18 32/27/14 33/4/18
f 32/27/14 21/18/14 20/8/18
f 33/4/18 32/27/14 20/8/18
f 31/26/13 17/16/8 32/27/14
f 32/27/14 17/16/8 21/18/14
f 31/26/13 14/16/2 17/16/8
f 31/26/13 30/26/2 14/16/2
f 24/23/2 25/23/10 16/22/7
f 15/22/2 24/23/2 16/22/7
f 16/22/7 25/23/10 18/20/9
f 25/23/10 23/21/9 18/20/9
f 18/20/9 23/21/9 22/1/16
f 18/20/9 22/1/16 19/3/16
f 21/18/9 18/19/9 20/8/16
f 20/8/16 18/19/9 19/9/16
f 21/18/9 17/16/8 18/19/9
f 17/16/8 16/17/7 18/19/9
f 17/16/8 14/16/2 16/17/7
f 14/16/2 15/17/2 16/17/7
# 68 elements

