# Created by Metasequoia

v -0.200000 0.000000 -0.200000
v 0.000000 0.000000 -0.200000
v 0.200000 0.000000 0.200000
v 0.000000 0.000000 0.200000
v -0.200000 0.000000 0.000000
v 0.200000 0.000000 0.000000
v 0.200000 0.000000 0.150000
v 0.200000 0.000000 0.100000
v 0.200000 0.000000 0.050000
v 0.200000 0.000000 -0.050000
v 0.200000 0.000000 -0.100000
v 0.200000 0.000000 -0.150000
v 0.150000 0.000000 0.200000
v 0.150000 0.000000 0.150000
v 0.150000 0.000000 0.100000
v 0.150000 0.000000 0.050000
v 0.150000 0.000000 0.000000
v 0.150000 0.000000 -0.050000
v 0.150000 0.000000 -0.100000
v 0.150000 0.000000 -0.150000
v 0.150000 0.000000 -0.200000
v 0.100000 0.000000 0.200000
v 0.100000 0.000000 0.150000
v 0.100000 0.000000 0.100000
v 0.100000 0.000000 0.050000
v 0.100000 0.000000 0.000000
v 0.100000 0.000000 -0.050000
v 0.100000 0.000000 -0.100000
v 0.100000 0.000000 -0.150000
v 0.100000 0.000000 -0.200000
v 0.050000 0.000000 0.200000
v 0.050000 0.000000 0.150000
v 0.050000 0.000000 0.100000
v 0.050000 0.000000 0.050000
v 0.050000 0.000000 0.000000
v 0.050000 0.000000 -0.050000
v 0.050000 0.000000 -0.100000
v 0.050000 0.000000 -0.150000
v 0.050000 0.000000 -0.200000
v 0.000000 0.000000 0.150000
v 0.000000 0.000000 0.100000
v 0.000000 0.000000 0.050000
v 0.000000 0.000000 0.000000
v 0.000000 0.000000 -0.050000
v 0.000000 0.000000 -0.100000
v 0.000000 0.000000 -0.150000
v -0.050000 0.000000 0.200000
v -0.050000 0.000000 0.150000
v -0.050000 0.000000 0.100000
v -0.050000 0.000000 0.050000
v -0.050000 0.000000 0.000000
v -0.050000 0.000000 -0.050000
v -0.050000 0.000000 -0.100000
v -0.050000 0.000000 -0.150000
v -0.050000 0.000000 -0.200000
v -0.100000 0.000000 0.200000
v -0.100000 0.000000 0.150000
v -0.100000 0.000000 0.100000
v -0.100000 0.000000 0.050000
v -0.100000 0.000000 0.000000
v -0.100000 0.000000 -0.050000
v -0.100000 0.000000 -0.100000
v -0.100000 0.000000 -0.150000
v -0.100000 0.000000 -0.200000
v -0.150000 0.000000 0.200000
v -0.150000 0.000000 0.150000
v -0.150000 0.000000 0.100000
v -0.150000 0.000000 0.050000
v -0.150000 0.000000 0.000000
v -0.150000 0.000000 -0.050000
v -0.150000 0.000000 -0.100000
v -0.150000 0.000000 -0.150000
v -0.150000 0.000000 -0.200000
v -0.200000 0.000000 0.150000
v -0.200000 0.000000 0.100000
v -0.200000 0.000000 0.050000
v -0.200000 0.000000 -0.050000
v -0.200000 0.000000 -0.100000
v -0.200000 0.000000 -0.150000
# 79 vertices

vt 0.35044 0.82478
vt 0.17522 0.82478
vt 0.17522 1.00000
vt 0.35044 1.00000
vt 0.52566 0.82478
vt 0.52566 0.64956
vt 0.35044 0.64956
vt 0.17522 0.47434
vt 0.00000 0.47434
vt 0.00000 0.64956
vt 0.17522 0.64956
vt 0.52566 0.47434
vt 0.35044 0.47434
vt 0.87610 0.12390
vt 0.70088 0.12390
vt 0.70088 0.29912
vt 0.87610 0.29912
vt 0.70088 0.64956
vt 0.70088 0.47434
vt 0.52566 1.00000
vt 0.20528 0.00000
vt 0.08138 0.00000
vt 0.08138 0.12390
vt 0.20528 0.12390
vt 0.45308 0.00000
vt 0.32918 0.00000
vt 0.32918 0.12390
vt 0.45308 0.12390
vt 0.94868 0.00000
vt 0.82478 0.00000
vt 0.82478 0.12390
vt 0.94868 0.12390
vt 0.35044 0.29912
vt 0.17522 0.29912
vt 0.35044 0.47434
vt 0.52566 0.12390
vt 0.35044 0.12390
vt 0.52566 0.29912
vt 0.87610 0.64956
vt 0.70088 0.82478
vt 0.87610 0.82478
vt 0.70088 1.00000
vt 0.20528 0.12390
vt 0.70088 0.00000
vt 0.70088 0.12390
vt 0.57698 0.00000
vt 0.57698 0.12390
vt 0.00000 0.29912
vt 0.00000 0.47434
vt 0.70088 0.29912
vt 0.17522 0.12390
vt 0.00000 0.12390
vt 0.00000 0.82478
vt 0.52566 0.47434
vt 0.87610 0.47434
vt 0.70088 0.47434
vt 0.87610 1.00000
vt 0.45308 0.12390
vt 0.00000 1.00000
# 59 texture vertices

vn 0.00000 1.00000 0.00000
# 1 normal vertices

f 73/1/1 1/2/1 79/3/1
f 73/1/1 79/3/1 72/4/1
f 71/1/1 78/5/1 77/6/1
f 71/1/1 77/6/1 70/7/1
f 69/8/1 5/9/1 76/10/1
f 69/8/1 76/10/1 68/11/1
f 67/12/1 75/13/1 74/7/1
f 67/12/1 74/7/1 66/6/1
f 63/14/1 72/15/1 71/16/1
f 63/14/1 71/16/1 62/17/1
f 61/6/1 70/18/1 69/19/1
f 61/6/1 69/19/1 60/12/1
f 59/4/1 68/20/1 67/5/1
f 59/4/1 67/5/1 58/1/1
f 57/21/1 66/22/1 65/23/1
f 57/21/1 65/23/1 56/24/1
f 55/25/1 64/26/1 63/27/1
f 55/25/1 63/27/1 54/28/1
f 53/29/1 62/30/1 61/31/1
f 53/29/1 61/31/1 52/32/1
f 51/33/1 60/34/1 59/8/1
f 51/33/1 59/8/1 50/35/1
f 49/36/1 58/37/1 57/33/1
f 49/36/1 57/33/1 48/38/1
f 46/39/1 54/18/1 53/40/1
f 46/39/1 53/40/1 45/41/1
f 44/5/1 52/40/1 51/18/1
f 44/5/1 51/18/1 43/6/1
f 42/20/1 50/42/1 49/40/1
f 42/20/1 49/40/1 41/5/1
f 40/26/1 48/21/1 47/43/1
f 40/26/1 47/43/1 4/27/1
f 39/30/1 2/44/1 46/45/1
f 39/30/1 46/45/1 38/31/1
f 37/44/1 45/46/1 44/47/1
f 37/44/1 44/47/1 36/15/1
f 35/34/1 43/48/1 42/49/1
f 35/34/1 42/49/1 34/8/1
f 33/45/1 41/36/1 40/38/1
f 33/45/1 40/38/1 32/50/1
f 29/51/1 38/52/1 37/48/1
f 29/51/1 37/48/1 28/34/1
f 27/11/1 36/10/1 35/53/1
f 27/11/1 35/53/1 26/2/1
f 25/7/1 34/11/1 33/2/1
f 25/7/1 33/2/1 24/1/1
f 23/38/1 32/33/1 31/35/1
f 23/38/1 31/35/1 22/54/1
f 21/39/1 30/55/1 29/56/1
f 21/39/1 29/56/1 20/18/1
f 19/7/1 28/35/1 27/8/1
f 19/7/1 27/8/1 18/11/1
f 17/55/1 26/17/1 25/16/1
f 17/55/1 25/16/1 16/56/1
f 15/57/1 24/41/1 23/40/1
f 15/57/1 23/40/1 14/42/1
f 12/50/1 20/38/1 19/12/1
f 12/50/1 19/12/1 11/19/1
f 10/47/1 18/46/1 17/25/1
f 10/47/1 17/25/1 6/58/1
f 9/2/1 16/53/1 15/59/1
f 9/2/1 15/59/1 8/3/1
f 7/37/1 14/51/1 13/34/1
f 7/37/1 13/34/1 3/33/1
# 64 elements

